<svg width="115" height="120" viewBox="0 0 115 120" fill="none" xmlns="http://www.w3.org/2000/svg" style="">
	<path d="M106.081 66.9864C106.081 94.5284 83.0863 117 54.5404 117C25.9946 117 3 94.5284 3 66.9864C3 39.4443 25.9946 16.9727 54.5404 16.9727C83.0863 16.9727 106.081 39.4443 106.081 66.9864Z" stroke="#FFD700" stroke-width="6" class="wUnChrmg_0"></path>
	<path d="M112 35.9589C112 54.0819 96.861 68.9178 78.0055 68.9178C59.15 68.9178 44.011 54.0819 44.011 35.9589C44.011 17.8359 59.15 3 78.0055 3C96.861 3 112 17.8359 112 35.9589Z" stroke="#FFD700" stroke-width="6" class="wUnChrmg_1"></path>
<path d="M28.6602 64.0621L69.6073 46.5157L64.767 89.7574L28.6602 64.0621Z" stroke="#FFD700" stroke-width="6" class="wUnChrmg_2"></path>
<style data-made-with="vivus-instant">.wUnChrmg_0{stroke-dasharray:320 322;stroke-dashoffset:321;animation:wUnChrmg_draw 3000ms ease-in-out 0ms forwards;}.wUnChrmg_1{stroke-dasharray:211 213;stroke-dashoffset:212;animation:wUnChrmg_draw 3000ms ease-in-out 0ms forwards;}.wUnChrmg_2{stroke-dasharray:133 135;stroke-dashoffset:134;animation:wUnChrmg_draw 3000ms ease-in-out 0ms forwards;}@keyframes wUnChrmg_draw{100%{stroke-dashoffset:0;}}@keyframes wUnChrmg_fade{0%{stroke-opacity:1;}94.44444444444444%{stroke-opacity:1;}100%{stroke-opacity:0;}}</style></svg>
