<svg width="1071" height="521" viewBox="0 0 1071 521" fill="none" xmlns="http://www.w3.org/2000/svg" style="">
<path d="M657.401 45.6977C657.401 70.8674 637.103 91.2704 612.067 91.2704C587.03 91.2704 566.733 70.8674 566.733 45.6977C566.733 20.528 587.03 0.124969 612.067 0.124969C637.103 0.124969 657.401 20.528 657.401 45.6977Z" stroke="#FFD700" stroke-width="0.5" class="syVUasSK_0"></path>
<path d="M198.515 45.698C198.515 70.8677 178.218 91.2707 153.181 91.2707C128.145 91.2707 107.847 70.8677 107.847 45.698C107.847 20.5282 128.145 0.125244 153.181 0.125244C178.218 0.125244 198.515 20.5282 198.515 45.698Z" stroke="#FFD700" stroke-width="0.5" class="syVUasSK_1"></path>
<path d="M427.956 45.6977C427.956 70.8674 407.659 91.2704 382.622 91.2704C357.586 91.2704 337.289 70.8674 337.289 45.6977C337.289 20.528 357.586 0.124969 382.622 0.124969C407.659 0.124969 427.956 20.528 427.956 45.6977Z" stroke="#FFD700" stroke-width="0.5" class="syVUasSK_2"></path>
<path d="M742.885 272.888C742.885 298.058 722.588 318.461 697.552 318.461C672.515 318.461 652.218 298.058 652.218 272.888C652.218 247.718 672.515 227.315 697.552 227.315C722.588 227.315 742.885 247.718 742.885 272.888Z" stroke="#FFD700" stroke-width="0.5" class="syVUasSK_3"></path>
<path width="320.016" height="91.1455" stroke="#FFD700" stroke-width="0.5" d="M 875.948,227.315 L 1105.964,227.315 A 45,45,0,0,1,1150.964,272.315 L 1150.964,273.4605 A 45,45,0,0,1,1105.964,318.4605 L 875.948,318.4605 A 45,45,0,0,1,830.948,273.4605 L 830.948,272.315 A 45,45,0,0,1,875.948,227.315" class="syVUasSK_4"></path>
<path d="M90.7924 475.172C90.7924 500.341 70.4952 520.744 45.4587 520.744C20.4222 520.744 0.125 500.341 0.125 475.172C0.125 450.002 20.4222 429.599 45.4587 429.599C70.4952 429.599 90.7924 450.002 90.7924 475.172Z" stroke="#FFD700" stroke-width="0.5" class="syVUasSK_5"></path>
<path width="320.016" height="91.1454" stroke="#FFD700" stroke-width="0.5" d="M 249.215,429.599 L 479.231,429.599 A 45,45,0,0,1,524.231,474.599 L 524.231,475.74440000000004 A 45,45,0,0,1,479.231,520.7444 L 249.215,520.7444 A 45,45,0,0,1,204.215,475.74440000000004 L 204.215,474.599 A 45,45,0,0,1,249.215,429.599" class="syVUasSK_6"></path>
<path width="320.016" height="91.1454" stroke="#FFD700" stroke-width="0.5" d="M 660.305,429.599 L 890.3209999999999,429.599 A 45,45,0,0,1,935.3209999999999,474.599 L 935.3209999999999,475.74440000000004 A 45,45,0,0,1,890.3209999999999,520.7444 L 660.305,520.7444 A 45,45,0,0,1,615.305,475.74440000000004 L 615.305,474.599 A 45,45,0,0,1,660.305,429.599" class="syVUasSK_7"></path>
<path width="320.016" height="91.1454" stroke="#FFD700" stroke-width="0.5" d="M 1071.39,429.599 L 1301.4060000000002,429.599 A 45,45,0,0,1,1346.4060000000002,474.599 L 1346.4060000000002,475.74440000000004 A 45,45,0,0,1,1301.4060000000002,520.7444 L 1071.39,520.7444 A 45,45,0,0,1,1026.39,475.74440000000004 L 1026.39,474.599 A 45,45,0,0,1,1071.39,429.599" class="syVUasSK_8"></path>
<style data-made-with="vivus-instant">.syVUasSK_0{stroke-dasharray:286 288;stroke-dashoffset:287;animation:syVUasSK_draw 3000ms linear 0ms forwards;}.syVUasSK_1{stroke-dasharray:286 288;stroke-dashoffset:287;animation:syVUasSK_draw 3000ms linear 0ms forwards;}.syVUasSK_2{stroke-dasharray:286 288;stroke-dashoffset:287;animation:syVUasSK_draw 3000ms linear 0ms forwards;}.syVUasSK_3{stroke-dasharray:286 288;stroke-dashoffset:287;animation:syVUasSK_draw 3000ms linear 0ms forwards;}.syVUasSK_4{stroke-dasharray:746 748;stroke-dashoffset:747;animation:syVUasSK_draw 3000ms linear 0ms forwards;}.syVUasSK_5{stroke-dasharray:286 288;stroke-dashoffset:287;animation:syVUasSK_draw 3000ms linear 0ms forwards;}.syVUasSK_6{stroke-dasharray:746 748;stroke-dashoffset:747;animation:syVUasSK_draw 3000ms linear 0ms forwards;}.syVUasSK_7{stroke-dasharray:746 748;stroke-dashoffset:747;animation:syVUasSK_draw 3000ms linear 0ms forwards;}.syVUasSK_8{stroke-dasharray:746 748;stroke-dashoffset:747;animation:syVUasSK_draw 3000ms linear 0ms forwards;}@keyframes syVUasSK_draw{100%{stroke-dashoffset:0;}}@keyframes syVUasSK_fade{0%{stroke-opacity:1;}94.44444444444444%{stroke-opacity:1;}100%{stroke-opacity:0;}}</style></svg>
