<svg width="506" height="84" viewBox="0 0 506 84" fill="none" xmlns="http://www.w3.org/2000/svg">
<mask id="path-1-inside-1" fill="white">
<path fill-rule="evenodd" clip-rule="evenodd" d="M505.313 41.9999C505.313 65.1958 486.608 83.9998 463.533 83.9998C440.459 83.9998 421.753 65.1958 421.753 41.9999C421.753 18.804 440.459 0 463.533 0C486.608 0 505.313 18.804 505.313 41.9999ZM83.5604 42.0001C83.5604 65.196 64.8547 84 41.7802 84C18.7056 84 0 65.196 0 42.0001C0 18.8042 18.7056 0.000233209 41.7802 0.000233209C64.8547 0.000233209 83.5604 18.8042 83.5604 42.0001ZM252.655 83.9998C275.73 83.9998 294.435 65.1958 294.435 41.9999C294.435 18.804 275.73 0 252.655 0C229.58 0 210.875 18.804 210.875 41.9999C210.875 65.1958 229.58 83.9998 252.655 83.9998Z"/>
</mask>
<path fill-rule="evenodd" clip-rule="evenodd" d="M505.313 41.9999C505.313 65.1958 486.608 83.9998 463.533 83.9998C440.459 83.9998 421.753 65.1958 421.753 41.9999C421.753 18.804 440.459 0 463.533 0C486.608 0 505.313 18.804 505.313 41.9999ZM83.5604 42.0001C83.5604 65.196 64.8547 84 41.7802 84C18.7056 84 0 65.196 0 42.0001C0 18.8042 18.7056 0.000233209 41.7802 0.000233209C64.8547 0.000233209 83.5604 18.8042 83.5604 42.0001ZM252.655 83.9998C275.73 83.9998 294.435 65.1958 294.435 41.9999C294.435 18.804 275.73 0 252.655 0C229.58 0 210.875 18.804 210.875 41.9999C210.875 65.1958 229.58 83.9998 252.655 83.9998Z" fill="#222222"/>
<path d="M463.533 84.2498C486.747 84.2498 505.563 65.3326 505.563 41.9999H505.063C505.063 65.0589 486.468 83.7498 463.533 83.7498V84.2498ZM421.503 41.9999C421.503 65.3326 440.319 84.2498 463.533 84.2498V83.7498C440.598 83.7498 422.003 65.0589 422.003 41.9999H421.503ZM463.533 -0.25C440.319 -0.25 421.503 18.6672 421.503 41.9999H422.003C422.003 18.9408 440.598 0.25 463.533 0.25V-0.25ZM505.563 41.9999C505.563 18.6672 486.747 -0.25 463.533 -0.25V0.25C486.468 0.25 505.063 18.9408 505.063 41.9999H505.563ZM41.7802 84.25C64.994 84.25 83.8104 65.3329 83.8104 42.0001H83.3104C83.3104 65.0592 64.7154 83.75 41.7802 83.75V84.25ZM-0.25 42.0001C-0.25 65.3329 18.5663 84.25 41.7802 84.25V83.75C18.8449 83.75 0.25 65.0592 0.25 42.0001H-0.25ZM41.7802 -0.249767C18.5663 -0.249767 -0.25 18.6674 -0.25 42.0001H0.25C0.25 18.9411 18.8449 0.250233 41.7802 0.250233V-0.249767ZM83.8104 42.0001C83.8104 18.6674 64.994 -0.249767 41.7802 -0.249767V0.250233C64.7154 0.250233 83.3104 18.9411 83.3104 42.0001H83.8104ZM294.185 41.9999C294.185 65.0589 275.59 83.7498 252.655 83.7498V84.2498C275.869 84.2498 294.685 65.3326 294.685 41.9999H294.185ZM252.655 0.25C275.59 0.25 294.185 18.9408 294.185 41.9999H294.685C294.685 18.6672 275.869 -0.25 252.655 -0.25V0.25ZM211.125 41.9999C211.125 18.9408 229.72 0.25 252.655 0.25V-0.25C229.441 -0.25 210.625 18.6672 210.625 41.9999H211.125ZM252.655 83.7498C229.72 83.7498 211.125 65.0589 211.125 41.9999H210.625C210.625 65.3326 229.441 84.2498 252.655 84.2498V83.7498Z" fill="#FFD700" mask="url(#path-1-inside-1)"/>
</svg>
