<svg width="464" height="85" viewBox="0 0 464 85" fill="none" xmlns="http://www.w3.org/2000/svg">
<mask id="path-1-inside-1" fill="white">
<path fill-rule="evenodd" clip-rule="evenodd" d="M42.1999 84.3997C65.5062 84.3997 84.3997 65.5062 84.3997 42.1999C84.3997 18.8935 65.5062 0 42.1999 0C18.8935 0 0 18.8935 0 42.1999C0 65.5062 18.8935 84.3997 42.1999 84.3997ZM205.917 0C183.825 0 165.917 17.9086 165.917 40V44.3997C165.917 66.4911 183.825 84.3997 205.917 84.3997H423.224C445.315 84.3997 463.224 66.4911 463.224 44.3997V40C463.224 17.9086 445.315 0 423.224 0H205.917Z"/>
</mask>
<path fill-rule="evenodd" clip-rule="evenodd" d="M42.1999 84.3997C65.5062 84.3997 84.3997 65.5062 84.3997 42.1999C84.3997 18.8935 65.5062 0 42.1999 0C18.8935 0 0 18.8935 0 42.1999C0 65.5062 18.8935 84.3997 42.1999 84.3997ZM205.917 0C183.825 0 165.917 17.9086 165.917 40V44.3997C165.917 66.4911 183.825 84.3997 205.917 84.3997H423.224C445.315 84.3997 463.224 66.4911 463.224 44.3997V40C463.224 17.9086 445.315 0 423.224 0H205.917Z" fill="#222222"/>
<path d="M84.1497 42.1999C84.1497 65.3681 65.3681 84.1497 42.1999 84.1497V84.6497C65.6443 84.6497 84.6497 65.6443 84.6497 42.1999H84.1497ZM42.1999 0.25C65.3681 0.25 84.1497 19.0316 84.1497 42.1999H84.6497C84.6497 18.7554 65.6443 -0.25 42.1999 -0.25V0.25ZM0.25 42.1999C0.25 19.0316 19.0316 0.25 42.1999 0.25V-0.25C18.7554 -0.25 -0.25 18.7554 -0.25 42.1999H0.25ZM42.1999 84.1497C19.0316 84.1497 0.25 65.3681 0.25 42.1999H-0.25C-0.25 65.6443 18.7554 84.6497 42.1999 84.6497V84.1497ZM166.167 40C166.167 18.0467 183.964 0.25 205.917 0.25V-0.25C183.687 -0.25 165.667 17.7706 165.667 40H166.167ZM166.167 44.3997V40H165.667V44.3997H166.167ZM205.917 84.1497C183.964 84.1497 166.167 66.353 166.167 44.3997H165.667C165.667 66.6292 183.687 84.6497 205.917 84.6497V84.1497ZM423.224 84.1497H205.917V84.6497H423.224V84.1497ZM462.974 44.3997C462.974 66.353 445.177 84.1497 423.224 84.1497V84.6497C445.453 84.6497 463.474 66.6292 463.474 44.3997H462.974ZM462.974 40V44.3997H463.474V40H462.974ZM423.224 0.25C445.177 0.25 462.974 18.0467 462.974 40H463.474C463.474 17.7705 445.454 -0.25 423.224 -0.25V0.25ZM205.917 0.25H423.224V-0.25H205.917V0.25Z" fill="#FFD700" mask="url(#path-1-inside-1)"/>
</svg>
