<svg width="113" height="71" viewBox="0 0 113 71" fill="none" xmlns="http://www.w3.org/2000/svg">
<path fill-rule="evenodd" clip-rule="evenodd" d="M52.4668 10.5069C52.4668 11.6941 51.5073 12.6565 50.3236 12.6565C49.14 12.6565 48.1804 11.6941 48.1804 10.5069C48.1804 9.31976 49.14 8.35736 50.3236 8.35736C51.5073 8.35736 52.4668 9.31976 52.4668 10.5069ZM30.8322 10.507C30.8322 11.6941 29.8727 12.6565 28.689 12.6565C27.5054 12.6565 26.5458 11.6941 26.5458 10.507C26.5458 9.31978 27.5054 8.35738 28.689 8.35738C29.8727 8.35738 30.8322 9.31978 30.8322 10.507ZM39.5063 12.6565C40.6899 12.6565 41.6494 11.6941 41.6494 10.5069C41.6494 9.31976 40.6899 8.35736 39.5063 8.35736C38.3226 8.35736 37.3631 9.31976 37.3631 10.5069C37.3631 11.6941 38.3226 12.6565 39.5063 12.6565Z" fill="#FFD700"/>
<path fill-rule="evenodd" clip-rule="evenodd" d="M50.3947 23.4554C49.2076 23.4554 48.2452 24.4178 48.2452 25.6049C48.2452 26.7921 49.2076 27.7545 50.3947 27.7545H61.1948C62.382 27.7545 63.3444 26.7921 63.3444 25.6049C63.3444 24.4178 62.382 23.4554 61.1948 23.4554H50.3947ZM41.962 27.7545C43.1456 27.7545 44.1052 26.7921 44.1052 25.6049C44.1052 24.4178 43.1456 23.4554 41.962 23.4554C40.7783 23.4554 39.8188 24.4178 39.8188 25.6049C39.8188 26.7921 40.7783 27.7545 41.962 27.7545Z" fill="#FFD700"/>
<path fill-rule="evenodd" clip-rule="evenodd" d="M30.8322 47.1585C30.8322 48.3457 29.8727 49.3081 28.689 49.3081C27.5054 49.3081 26.5458 48.3457 26.5458 47.1585C26.5458 45.9713 27.5054 45.0089 28.689 45.0089C29.8727 45.0089 30.8322 45.9713 30.8322 47.1585ZM36.1679 47.1585C36.1679 45.9713 37.1303 45.0089 38.3175 45.0089H49.1175C50.3047 45.0089 51.2671 45.9713 51.2671 47.1585C51.2671 48.3457 50.3047 49.3081 49.1175 49.3081H38.3175C37.1303 49.3081 36.1679 48.3457 36.1679 47.1585ZM57.6987 45.0089C56.5115 45.0089 55.5491 45.9713 55.5491 47.1585C55.5491 48.3457 56.5115 49.3081 57.6987 49.3081H68.4988C69.6859 49.3081 70.6483 48.3457 70.6483 47.1585C70.6483 45.9713 69.6859 45.0089 68.4988 45.0089H57.6987ZM74.9303 47.1585C74.9303 45.9713 75.8927 45.0089 77.0798 45.0089H87.8799C89.0671 45.0089 90.0295 45.9713 90.0295 47.1585C90.0295 48.3457 89.0671 49.3081 87.8799 49.3081H77.0798C75.8927 49.3081 74.9303 48.3457 74.9303 47.1585ZM96.461 45.0089C95.2739 45.0089 94.3115 45.9713 94.3115 47.1585C94.3115 48.3457 95.2739 49.3081 96.461 49.3081H107.261C108.448 49.3081 109.411 48.3457 109.411 47.1585C109.411 45.9713 108.448 45.0089 107.261 45.0089H96.461Z" fill="#FFD700"/>
<path d="M27.8389 41.8393L19.6777 22.8214H14.4817L6.32043 41.8393H11.6797L13.0127 38.4013H21.1195L22.4253 41.8393H27.8389ZM17.0933 27.8692L19.7321 34.7724H14.4273L17.0933 27.8692Z" fill="white"/>
<path d="M43.726 41.8393V37.7738H34.2317V22.8214H29.3078V41.8393H43.726Z" fill="white"/>
<path d="M82.2739 41.8393L74.1126 22.8214H68.9166L60.7554 41.8393H66.1146L67.4476 38.4013H75.5545L76.8603 41.8393H82.2739ZM71.5282 27.8692L74.167 34.7724H68.8622L71.5282 27.8692Z" fill="white"/>
<path d="M50.3576 34.7724V41.8393H45.4337V31.1434H60.7496V34.7724H50.3576Z" fill="white"/>
<path d="M48.0552 71C54.7993 71 58.8199 67.2797 58.8199 61.5041C58.8199 55.7025 54.8771 51.9821 48.0552 51.9821C41.3111 51.9821 37.2906 55.7545 37.2906 61.5041C37.2906 67.2537 41.3111 71 48.0552 71ZM48.0552 67.1236C44.1125 67.1236 41.9855 64.9642 41.9855 61.5041C41.9855 58.0439 44.0866 55.8586 48.0552 55.8586C51.9979 55.8586 54.073 58.0439 54.073 61.5041C54.073 64.9382 51.9979 67.1236 48.0552 67.1236Z" fill="white"/>
<path d="M74.2233 63.6114L65.2225 52.4244H60.8907V70.5577H65.5856V59.3187L74.5864 70.5577H78.9442V52.4244H74.2233V63.6114Z" fill="white"/>
<path d="M96.6282 70.5577V67.1236H86.3823V63.1691H95.9278V59.683H86.3823V55.8586H96.6282V52.4244H81.6874V70.5577H96.6282Z" fill="white"/>
<path d="M10.3496 19.0179C15.9265 19.0179 18.4944 16.5463 18.4944 13.0341C18.4944 8.55934 13.6957 7.7008 10.4534 7.12844C7.08131 6.53007 6.12157 6.11381 6.12157 5.15121C6.12157 4.08455 7.02943 3.56422 8.81922 3.56422C10.9981 3.56422 13.1251 4.34471 14.5258 5.69755L17.6125 3.14796C15.3039 0.936584 12.736 0 9.15642 0C4.40961 0 1.42664 2.02927 1.42664 5.59349C1.42664 9.9382 5.23965 10.7187 9.26018 11.3431C12.7619 11.8894 13.7995 12.3317 13.7995 13.5024C13.7995 14.8813 12.5544 15.4536 10.3755 15.4536C7.70385 15.4536 5.57686 14.491 4.61712 12.3837L0 13.3203C1.271 16.6504 3.70926 19.0179 10.3496 19.0179Z" fill="white"/>
<path d="M25.2886 18.5756V0.442277H20.5418V18.5756H25.2886Z" fill="white"/>
<path d="M67.928 11.5772C70.1587 10.9268 71.7669 9.41787 71.7669 6.13983C71.7669 1.43089 68.3689 0.442277 64.1668 0.442277H54.5435V18.5756H59.2125V12.0195H63.2071L66.9942 18.5756H72.3635L67.928 11.5772ZM63.9852 3.87642C65.3081 3.87642 67.046 4.03252 67.046 6.19186C67.046 8.37722 65.3341 8.55934 63.9852 8.55934H59.2125V3.87642H63.9852Z" fill="white"/>
<path d="M87.5848 11.5772C89.8155 10.9268 91.4237 9.41787 91.4237 6.13983C91.4237 1.43089 88.0257 0.442277 83.8236 0.442277H74.2003V18.5756H78.8693V12.0195H82.8639L86.651 18.5756H92.0203L87.5848 11.5772ZM83.6421 3.87642C84.9649 3.87642 86.7028 4.03252 86.7028 6.19186C86.7028 8.37722 84.9909 8.55934 83.6421 8.55934H78.8693V3.87642H83.6421Z" fill="white"/>
<path d="M113 18.5756L105.218 0.442277H100.264L92.4823 18.5756H97.5923L98.8633 15.2975H106.593L107.838 18.5756H113ZM102.754 5.25528L105.27 11.8374H100.212L102.754 5.25528Z" fill="white"/>
<path fill-rule="evenodd" clip-rule="evenodd" d="M48.0354 3.80359L35.3945 3.80359L35.3945 15.2143L48.0354 15.2143V19.0179H31.6022L31.6022 16.4822H31.6022L31.6022 2.53573H31.6022L31.6022 0.633942H48.0354V3.80359Z" fill="white"/>
</svg>
