<?xml version="1.0" encoding="UTF-8"?>
<svg width="620px" height="310px" viewBox="0 0 620 310" version="1.1" xmlns="http://www.w3.org/2000/svg" xmlns:xlink="http://www.w3.org/1999/xlink">
    <!-- Generator: Sketch 59 (86127) - https://sketch.com -->
    <title>logo</title>
    <desc>Created with Sketch.</desc>
    <g id="Page-1" stroke="none" stroke-width="1" fill="none" fill-rule="evenodd">
        <path d="M31,248 C48.1208272,248 62,261.879173 62,279 C62,296.120827 48.1208272,310 31,310 C13.8791728,310 0,296.120827 0,279 C0,261.879173 13.8791728,248 31,248 Z M217,248 C234.120827,248 248,261.879173 248,279 C248,296.120827 234.120827,310 217,310 L124,310 C106.879173,310 93,296.120827 93,279 C93,261.879173 106.879173,248 124,248 L217,248 Z M403,248 C420.120827,248 434,261.879173 434,279 C434,296.120827 420.120827,310 403,310 L310,310 C292.879173,310 279,296.120827 279,279 C279,261.879173 292.879173,248 310,248 L403,248 Z M589,248 C606.120827,248 620,261.879173 620,279 C620,296.120827 606.120827,310 589,310 L496,310 C478.879173,310 465,296.120827 465,279 C465,261.879173 478.879173,248 496,248 L589,248 Z M31,124 C48.1208272,124 62,137.879173 62,155 C62,172.120827 48.1208272,186 31,186 C13.8791728,186 0,172.120827 0,155 C0,137.879173 13.8791728,124 31,124 Z M217,124 C234.120827,124 248,137.879173 248,155 C248,172.120827 234.120827,186 217,186 L124,186 C106.879173,186 93,172.120827 93,155 C93,137.879173 106.879173,124 124,124 L217,124 Z M345.647969,0 C356.879489,0 367.290087,1.67914988 376.880077,5.0375 C386.470067,8.39585013 394.288816,12.6583075 400.336557,17.825 C405.347543,21.7861309 407.852998,26.3499742 407.852998,31.5166667 C407.852998,35.3055745 406.384283,38.75 403.446809,41.85 C400.509334,44.9500155 397.053534,46.5 393.079304,46.5 C390.487415,46.5 388.154749,45.7250077 386.081238,44.175 C383.316556,41.7638768 379.601571,39.4819552 374.93617,37.3291667 C370.27077,35.1763781 365.346254,33.3680629 360.162476,31.9041667 C354.978697,30.4402705 350.140577,29.7083333 345.647969,29.7083333 C338.217887,29.7083333 331.954249,30.6555461 326.856867,32.55 C321.759485,34.4444539 317.914907,37.0277614 315.323017,40.3 C312.731128,43.5722386 311.435203,47.3610896 311.435203,51.6666667 C311.435203,56.8333592 312.947116,61.0958165 315.970986,64.4541667 C318.994857,67.8125168 323.357805,70.4819345 329.059961,72.4625 C334.762117,74.4430655 341.587323,76.2083256 349.535783,77.7583333 C359.90334,79.6527872 369.018014,81.8916537 376.880077,84.475 C384.742141,87.0583462 391.264964,90.3735909 396.448743,94.4208333 C401.632521,98.4680758 405.520297,103.548581 408.112186,109.6625 C410.704075,115.776419 412,123.224956 412,132.008333 C412,143.202834 408.88978,152.847182 402.669246,160.941667 C396.448712,169.036152 388.284383,175.23609 378.176015,179.541667 C368.067648,183.847244 357.138679,186 345.388781,186 C333.293299,186 322.407527,184.493071 312.731141,181.479167 C303.054755,178.465263 293.810489,173.169482 284.998066,165.591667 C282.751762,163.697213 281.023862,161.544456 279.814313,159.133333 C278.604765,156.72221 278,154.311123 278,151.9 C278,147.938869 279.425518,144.451404 282.276596,141.4375 C285.127674,138.423596 288.713067,136.916667 293.032882,136.916667 C296.315942,136.916667 299.253372,137.94999 301.845261,140.016667 C308.41138,145.355582 314.934204,149.402764 321.413926,152.158333 C327.893649,154.913903 335.885188,156.291667 345.388781,156.291667 C351.782108,156.291667 357.656969,155.301399 363.01354,153.320833 C368.370111,151.340268 372.689861,148.67085 375.972921,145.3125 C379.25598,141.95415 380.897485,138.122244 380.897485,133.816667 C380.897485,128.649974 379.342375,124.258351 376.232108,120.641667 C373.121841,117.024982 368.370116,113.968068 361.976789,111.470833 C355.583463,108.973599 347.462332,107.036118 337.613153,105.658333 C328.282352,104.280549 320.074826,102.170848 312.990329,99.3291667 C305.905832,96.4874858 299.987774,92.8708553 295.235977,88.4791667 C290.48418,84.087478 286.898787,78.920863 284.479691,72.9791667 C282.060594,67.0374703 280.851064,60.3639259 280.851064,52.9583333 C280.851064,41.7638329 283.745297,32.2055952 289.533849,24.2833333 C295.322402,16.3610715 303.14115,10.333354 312.990329,6.2 C322.839508,2.066646 333.725279,0 345.647969,0 Z M483.646204,2.07938515 C486.747996,2.07938515 489.634343,2.98236928 492.305331,4.78836464 C494.976319,6.59435999 496.914911,9.13131541 498.121163,12.399307 L561.707593,163.586162 C562.569202,165.822156 563,167.88612 563,169.778115 C563,174.422103 561.492207,178.120038 558.476575,180.872031 C555.460943,183.624024 552.143798,185 548.52504,185 C545.423248,185 542.62306,184.054017 540.124394,182.162021 C537.625728,180.270026 535.687137,177.690072 534.308562,174.42208 L482.169104,53.1522245 L456.674,113 L497.968023,113 C502.898723,123.541707 498.350103,136.084571 487.808396,141.015271 C485.013643,142.322468 481.965928,143 478.880574,143 L443.894,143 L430.399031,174.680078 C429.192778,177.94807 427.340346,180.485025 424.84168,182.291021 C422.343014,184.097016 419.628986,185 416.699515,185 C412.046826,185 408.600442,183.710023 406.360258,181.130029 C404.120075,178.550036 403,175.368092 403,171.584102 C403,170.036106 403.258479,168.402134 403.775444,166.682139 L468.137318,12.399307 C469.515893,8.95931585 471.626803,6.2933627 474.470113,4.40136757 C477.313423,2.50937243 480.372089,1.73538604 483.646204,2.07938515 Z M604.834507,3 C609.289928,3 612.931324,4.50831825 615.758803,7.525 C618.586282,10.5416817 620,14.29093 620,18.7728571 L620,168.227143 C620,172.70907 618.414922,176.458318 615.244718,179.475 C612.074515,182.491682 608.00472,184 603.035211,184 C598.237065,184 594.29579,182.491682 591.211268,179.475 C588.126745,176.458318 586.584507,172.70907 586.584507,168.227143 L586.584507,45.7867669 L570.647887,55.49 C568.077452,57.0414363 565.335695,57.8171429 562.422535,57.8171429 C557.967114,57.8171429 554.282878,56.1364454 551.369718,52.775 C548.456558,49.4135546 547,45.8366856 547,42.0442857 C547,36.183304 549.656077,31.7014441 554.96831,28.5985714 L593.78169,5.32714286 C596.69485,3.77570653 600.379086,3 604.834507,3 Z M31,0 C48.1208272,0 62,13.8791728 62,31 C62,48.1208272 48.1208272,62 31,62 C13.8791728,62 0,48.1208272 0,31 C0,13.8791728 13.8791728,0 31,0 Z M124,0 C141.120827,0 155,13.8791728 155,31 C155,48.1208272 141.120827,62 124,62 C106.879173,62 93,48.1208272 93,31 C93,13.8791728 106.879173,0 124,0 Z M217,0 C234.120827,0 248,13.8791728 248,31 C248,48.1208272 234.120827,62 217,62 C199.879173,62 186,48.1208272 186,31 C186,13.8791728 199.879173,0 217,0 Z" id="logo" fill="#FFFFFF"></path>
    </g>
</svg>