<svg xmlns="http://www.w3.org/2000/svg" viewBox="0 0 250.06 249.87"><defs><style>.cls-1{fill:#231f20;}</style></defs><g id="Layer_2" data-name="Layer 2"><g id="Layer_1-2" data-name="Layer 1"><path class="cls-1" d="M134.48,1.92a5,5,0,0,0-3.13.63,2.85,2.85,0,0,0-1.29,2.3q-.15,2,2.55,3.16l3.67,1.53a7,7,0,0,1,3.15,2.26,4.67,4.67,0,0,1,.79,3.15,4.68,4.68,0,0,1-2.13,3.78,8.1,8.1,0,0,1-5.14,1,9.49,9.49,0,0,1-4-1.14A7,7,0,0,1,126.22,16a.71.71,0,0,1-.08-.27.47.47,0,0,1,.28-.34l1-.58a.71.71,0,0,1,.37-.13.39.39,0,0,1,.27.18,7.84,7.84,0,0,0,2.06,2.19,6.08,6.08,0,0,0,2.88.81,6.21,6.21,0,0,0,3.44-.52A2.66,2.66,0,0,0,137.82,15a2.49,2.49,0,0,0-.51-1.77,5.83,5.83,0,0,0-2.19-1.51l-3.84-1.65a6.08,6.08,0,0,1-2.87-2.23,4.77,4.77,0,0,1-.75-3,4.92,4.92,0,0,1,1-2.76A5.29,5.29,0,0,1,131.14.43a8.44,8.44,0,0,1,3.48-.4A8.68,8.68,0,0,1,138,1a7.56,7.56,0,0,1,2.49,2.09.38.38,0,0,1,.11.27.29.29,0,0,1-.14.23l-1.27.84a.23.23,0,0,1-.16.07c-.05,0-.15-.09-.29-.26A5.53,5.53,0,0,0,134.48,1.92Z"/><path class="cls-1" d="M179.32,12.35a.29.29,0,0,1,.14.44l-7.94,16.72a.49.49,0,0,1-.24.28.56.56,0,0,1-.37-.08l-1.48-.7a.55.55,0,0,1-.25-.2.45.45,0,0,1,0-.3l8-16.77c.1-.22.25-.28.43-.19Z"/><path class="cls-1" d="M211.35,34.55a.34.34,0,0,1,.23.13l8.07,8.43a.25.25,0,0,1,0,.39l-1,.91a.29.29,0,0,1-.46,0l-6.27-6.56a.41.41,0,0,0-.24-.15.37.37,0,0,0-.22.12L207.07,42a.25.25,0,0,0,0,.4l4.65,4.87a.25.25,0,0,1,0,.4l-1,1c-.11.11-.23.1-.36,0l-4.66-4.87a.25.25,0,0,0-.4,0l-4.57,4.37a.3.3,0,0,0-.11.18.29.29,0,0,0,.11.19l6.59,6.89a.44.44,0,0,1,.12.2.27.27,0,0,1-.11.19l-1,1a.25.25,0,0,1-.41,0l-8.25-8.62a.45.45,0,0,1-.14-.26.38.38,0,0,1,.15-.25L211.1,34.7A.53.53,0,0,1,211.35,34.55Z"/><path class="cls-1" d="M227,95.38a.28.28,0,0,1-.4-.19L226,93.41a.45.45,0,0,1,.15-.5l6.54-6a.59.59,0,0,0,.15-.28.79.79,0,0,0-.07-.42l-1.51-4.12c-.07-.2-.19-.26-.37-.2l-7.62,2.79a.46.46,0,0,1-.34,0c-.08,0-.14-.13-.2-.3l-.58-1.58a.41.41,0,0,1,0-.3.39.39,0,0,1,.22-.16L239.78,76a.47.47,0,0,1,.29,0,.31.31,0,0,1,.16.21L242.72,83a7.73,7.73,0,0,1,.44,4.93,4.36,4.36,0,0,1-2.91,2.86,4.81,4.81,0,0,1-3.49.1A5.68,5.68,0,0,1,234.21,89a.16.16,0,0,0-.28,0l-6.73,6.34A.43.43,0,0,1,227,95.38Zm9.25-7.12a3,3,0,0,0,2.86.17,3.12,3.12,0,0,0,2-1.83,4.44,4.44,0,0,0-.22-3.1l-1.57-4.3c-.08-.22-.21-.31-.39-.24l-5.86,2.14c-.21.08-.29.19-.24.34l1.41,3.86A6,6,0,0,0,236.28,88.26Z"/><path class="cls-1" d="M230.18,139.69a.28.28,0,0,1-.29-.33l.14-1.9a.42.42,0,0,1,.34-.39l8.4-2.78a.54.54,0,0,0,.25-.19.79.79,0,0,0,.1-.41l.31-4.38c0-.21-.07-.32-.26-.33l-8.1-.57a.45.45,0,0,1-.31-.11.5.5,0,0,1-.07-.36l.12-1.68a.44.44,0,0,1,.09-.28.36.36,0,0,1,.27-.06l18.54,1.29a.47.47,0,0,1,.29.09.38.38,0,0,1,.06.25l-.51,7.23a7.86,7.86,0,0,1-1.6,4.69,4.4,4.4,0,0,1-3.83,1.43,4.84,4.84,0,0,1-3.23-1.34,5.63,5.63,0,0,1-1.54-2.8.16.16,0,0,0-.09-.14.16.16,0,0,0-.16,0l-8.73,3ZM241.53,137a3.05,3.05,0,0,0,2.54,1.33,3.16,3.16,0,0,0,2.61-.84,4.55,4.55,0,0,0,1.07-2.92l.31-4.57c0-.24-.07-.37-.26-.38l-6.22-.43c-.23,0-.34,0-.36.21l-.28,4.09A5.87,5.87,0,0,0,241.53,137Z"/><path class="cls-1" d="M222,168a.36.36,0,0,1,.29.15l13.05,14.72a.58.58,0,0,1,.17.3.63.63,0,0,1-.09.33l-1,1.78a.53.53,0,0,1-.63.34l-19.4-2.92-.13,0a.26.26,0,0,1-.13-.4l.87-1.63a.41.41,0,0,1,.43-.24l5.29.82a.56.56,0,0,0,.19,0,.38.38,0,0,0,.14-.16l3.6-6.66a.32.32,0,0,0,0-.37l-3.59-4a.37.37,0,0,1,0-.45l.75-1.37A.27.27,0,0,1,222,168Zm1.14,13.38c-.09.17,0,.29.2.35l9,1.32c.16,0,.26,0,.29,0s0-.15-.12-.27l-6.06-6.88-.11-.12c-.08,0-.15,0-.22.12Z"/><path class="cls-1" d="M199.26,211.1a2.46,2.46,0,1,1-.43,4.91,2.36,2.36,0,0,1-1.68-.87,2.39,2.39,0,0,1-.56-1.8,2.45,2.45,0,0,1,2.67-2.24Z"/><path class="cls-1" d="M165.81,223a.31.31,0,0,1,.1.3l-.62,19.67a.65.65,0,0,1-.09.33.6.6,0,0,1-.29.18l-1.93.63a.55.55,0,0,1-.69-.18L150.2,228.42l-.06-.12c-.07-.2,0-.33.17-.39l1.76-.57a.38.38,0,0,1,.47.12l3.28,4.23.15.11s.11,0,.21,0l7.19-2.36a.3.3,0,0,0,.23-.3l.17-5.39c0-.17.1-.28.3-.35l1.48-.48A.26.26,0,0,1,165.81,223Zm-8.37,10.5q-.27.09-.09.39L163,241c.1.14.18.19.25.17s.1-.12.1-.28l.33-9.17v-.16q0-.12-.24-.06Z"/><path class="cls-1" d="M117.93,249.87l-1.86-.18c-.21,0-.3-.14-.28-.36l1.58-16.7a.31.31,0,0,0,0-.21.29.29,0,0,0-.2-.07l-9-.85a.38.38,0,0,1-.22-.08.22.22,0,0,1-.06-.21l.13-1.37c0-.19.13-.28.34-.26l11.33,1.08a.43.43,0,0,1,.28.1.43.43,0,0,1,0,.3l-1.75,18.48C118.25,249.78,118.14,249.89,117.93,249.87Z"/><path class="cls-1" d="M69.93,237.36l-10.06-5.43a.25.25,0,0,1-.1-.38l.63-1.17a.29.29,0,0,1,.45-.11l7.78,4.2a.44.44,0,0,0,.27.08c.06,0,.11-.09.17-.19l3-5.63a.25.25,0,0,0-.11-.39L65.89,225c-.17-.09-.21-.21-.13-.36l.66-1.21a.22.22,0,0,1,.14-.13.35.35,0,0,1,.22.06l6.11,3.3a.25.25,0,0,0,.38-.12L77,219.65a.31.31,0,0,1,.48-.12l1.56.84a.37.37,0,0,1,.21.2.39.39,0,0,1-.07.29l-8.82,16.33C70.26,237.41,70.11,237.46,69.93,237.36Z"/><path class="cls-1" d="M47.88,198a.36.36,0,0,1-.25.21L29,204.63a.73.73,0,0,1-.34,0,.62.62,0,0,1-.27-.22l-1.28-1.57a.53.53,0,0,1-.07-.71l10.14-16.8.08-.1a.26.26,0,0,1,.42,0l1.17,1.43a.41.41,0,0,1,.06.49l-2.79,4.57a.49.49,0,0,0,0,.18.27.27,0,0,0,.09.2L41,198a.3.3,0,0,0,.36.11l5.1-1.76a.35.35,0,0,1,.43.16l1,1.21A.24.24,0,0,1,47.88,198Zm-12.8-4.07c-.12-.15-.25-.13-.4,0L30,201.79c-.09.14-.11.24-.07.29s.14,0,.3,0l8.68-3,.15-.06q.1-.08,0-.24Z"/><path class="cls-1" d="M16.77,160.49a2.46,2.46,0,1,1-2.92-3.5,2.46,2.46,0,0,1,2.92,3.5Z"/><path class="cls-1" d="M18.29,120.67a7.34,7.34,0,0,1-3.58,2.57,13.07,13.07,0,0,1-5.39.55A13.12,13.12,0,0,1,4,122.36a7.38,7.38,0,0,1-3.18-3.12A8.16,8.16,0,0,1,0,114.75a8.07,8.07,0,0,1,1.52-4.27,7.52,7.52,0,0,1,3.63-2.57,13.32,13.32,0,0,1,5.44-.55,13.11,13.11,0,0,1,5.23,1.41A7.39,7.39,0,0,1,19,111.88a8.14,8.14,0,0,1,.8,4.49A8.29,8.29,0,0,1,18.29,120.67Zm-2-8.85q-1.84-1.54-5.85-1.87c-2.73-.22-4.8.09-6.19.93a4.78,4.78,0,0,0-2.32,4,4.85,4.85,0,0,0,1.65,4.4q1.89,1.58,5.95,1.9c2.68.22,4.7-.09,6.08-.93a4.94,4.94,0,0,0,2.28-4.11A4.82,4.82,0,0,0,16.29,111.82Z"/><path class="cls-1" d="M19.72,57a.29.29,0,0,1,.17-.16.3.3,0,0,1,.24.06l16.22,9.25a.29.29,0,0,1,.11.45l-.64,1.1a1,1,0,0,1-.19.27.57.57,0,0,1-.26.11L17.73,69.55c-.14,0-.22,0-.23.09s0,.12.11.17L30.15,77a.31.31,0,0,1,.11.48l-.72,1.27a.3.3,0,0,1-.46.12L12.93,69.62a.54.54,0,0,1-.22-.19.37.37,0,0,1,.07-.28l.73-1.29a.74.74,0,0,1,.2-.24.7.7,0,0,1,.3-.1l17.23-1.4c.13,0,.22-.07.25-.13s0-.17-.12-.25l-12.29-7a.27.27,0,0,1-.12-.42Z"/><path class="cls-1" d="M46.44,27.55q0-.11.15-.21L56,20.42c.13-.1.26-.08.37.08l.79,1.06a.3.3,0,0,1-.09.46l-7.31,5.37c-.11.09-.17.16-.18.22a.3.3,0,0,0,.1.23l3.6,4.91a.26.26,0,0,0,.4.06l5.43-4a.25.25,0,0,1,.4.06L60.32,30c.09.12.06.24-.09.35l-5.42,4a.24.24,0,0,0-.06.39l3.74,5.09a.31.31,0,0,0,.16.14.29.29,0,0,0,.2-.08l7.69-5.66a.29.29,0,0,1,.21-.08s.11,0,.17.12l.82,1.11a.26.26,0,0,1-.06.4l-9.61,7.08a.43.43,0,0,1-.28.1.39.39,0,0,1-.23-.18l-11-15A.49.49,0,0,1,46.44,27.55Z"/><path class="cls-1" d="M93.29,15.59a2.44,2.44,0,0,1-.91-3.36,2.45,2.45,0,0,1,3.36-.92,2.45,2.45,0,0,1,.92,3.36,2.46,2.46,0,0,1-3.37.92Z"/></g></g></svg>